<?xml version="1.0" encoding="UTF-8"?>
<svg id="Layer_2" xmlns="http://www.w3.org/2000/svg" viewBox="0 0 41.62 30.43">
  <defs>
    <style>
      .cls-1 {
        fill: #9bff00;
      }

      .cls-2 {
        fill: #fff;
      }
    </style>
  </defs>
  <g id="Layer_1-2" data-name="Layer_1">
    <g>
      <path class="cls-1" d="M27.67,30.43h-8.55c-.34,0-.65-.17-.83-.46l-3.48-5.44c-.15-.25-.51-.25-.66,0l-3.49,5.47c-.17.27-.47.43-.79.43H.4c-.22,0-.4-.18-.4-.4V.39c0-.22.18-.39.39-.39h9.47c.32,0,.62.16.79.43l3.49,5.47c.16.24.51.24.66,0L18.28.46c.18-.28.5-.46.83-.46h8.55c.39,0,.64.42.44.76l-7.95,13.93c-.19.33-.19.73,0,1.05l7.95,13.93c.19.34-.05.76-.44.76Z"/>
      <path class="cls-2" d="M15.82,25.7c-1.23.93-2,1.7-1.43,2.78.39.61,2,.22,3.87-1.39s8.7-10.04,16.22-20.26c0,0-.22,9.96-3.61,14.57s-5.13,6.26-6.09,3.61c-.17-.7.91-1.09.09-2.04s-2.65-.04-2.78,1.52.09,3.83,4,3.78,7.74-2.7,10.48-9.22c2.74-6.52,3-14,3.57-15.3s2.48-2.06.87-2.06h-3.39c-.96,0-1.13.45-4.26,4.88s-9.78,13.26-17.52,19.13Z"/>
    </g>
  </g>
</svg>